_________________________  Visit us at _________________________
  
http://p2pdl.com  ____________________________  http://p2pdl.com


Matru ki Bijlee ka Mandola 2013 BRRip 720p x264 Hindi ESubs - ViZNU


Genre: Comedy | Drama
Plot: Harry is an industrialist who loves his daughter Bijlee, and the bond they share with Harry's
man friday, Matru. Bijlee's plan to wed the son of a politician, however, brings twists and turns in
the lives of Matru, Bijlee and Mandola. 
Director: Vishal Bhardwaj
Stars: Pankaj Kapur, Imran Khan, Anushka Sharma 
Rated: N/a


Info: 
http://www.imdb.com/title/tt2106537/

Trailer:


Format                         : MPEG-4
File size                      : 848 MiB
Duration                       : 2h 29mn
Overall bit rate               : 792 Kbps
Video Format                   : AVC
Video Bit rate                 : 705 Kbps
Width                          : 1 280 pixels
Height                         : 544 pixels
Display aspect ratio           : 2.35:1
Frame rate mode                : Constant
Frame rate                     : 23.976 fps
Stream size                    : 755 MiB (89%)
Writing library                : x264 core 129 r2245
Audio Format                   : AAC
Audio Bit rate                 : 84.0 Kbps
Channel(s)                     : 2 channels
Channel positions              : Front: L R
Sampling rate                  : 48.0 KHz
Stream size                    : 89.9 MiB (11%)
Language                       : Hindi
Subtitle                       : Yes (English)
Source                         : 720p.Bluray.DDR(Thanks)

Screenshots:
 
http://cdn.piczend.com/images/sqzQ8R4c/1363140125_6.jpg 
http://cdn.piczend.com/images/iz0SbSit/1363140143_1.png 
http://cdn.piczend.com/images/rrKUyKlk/1363140130_2.png 
http://cdn.piczend.com/images/9oWs8VdW/1363140146_3.png 
http://cdn.piczend.com/images/7y75E39W/1363140120_4.jpg 
http://cdn.piczend.com/images/XZAdG7i6/1363140114_5.jpg

----------------------------------------------------------------------------------------------------


Encoded using revolutionary 10bit encoding, which enables us to provide you more crispier 
and sharper images at small sizes, just make sure you follow our instructions without a fault.
Recommend to you to use latest version of VLC player. Install K-Lite Codec Pack or shark007 codecs
in case of any kind of problem in playback (For non-VLC Media Player users). Alternatively, install
Core AVC codecs, the fastest decoder that there is coupled with Community Center Codec Pack and play
on Windows Media Player Classic.

Encoder Notes: Encoder Notes: Looking For Early Access To Anything You Can Provide DVDScr, R5, DVDR, BluRay, Direct
Audio, Music Releases and Seedboxes. We require dedicated servers, so as to do more and fast releases of movies.
If You Got anything to offer contact us at "prg@hush.com".